# xmcd CD database file
#
# Track frame offsets:
#	150
#	2895
#	8955
#	19010
#	27652
#	40025
#	53687
#	66145
#	77542
#	87445
#	95377
#	110307
#	121365
#	132045
#	140332
#	152037
#	169965
#	178677
#	192175
#	205797
#	218845
#
# Disc length: 3221 seconds
#
# Revision: 3
# Processed by: cddbd v1.5.2PL0 Copyright (c) Steve Scherf et al.
# Submitted via: CDex 1.70beta2
#
DISCID=130c9315
DTITLE=Willie Nelson - Classic and Unreleased Collection Vol. 1
DYEAR=1995
DGENRE=Country
TTITLE0=Introduction By Willie
TTITLE1=No Place For Me
TTITLE2=Lumberjack
TTITLE3=Why Are You Picking On Me
TTITLE4=The Shelter of Your Arms
TTITLE5=Moment Isn't Very Long
TTITLE6=Any Old Arms Won't Do
TTITLE7=December Day
TTITLE8=Healing Hands of Time
TTITLE9=Things To Remember
TTITLE10=The Face Of A Fighter
TTITLE11=Suffering In Silence
TTITLE12=Who Do I Know in Dallas
TTITLE13=Slow Down Old World
TTITLE14=I Hope So
TTITLE15=I Gotta Have Something I Ain't Got
TTITLE16=I'm So Ashamed
TTITLE17=My Cricket And Me
TTITLE18=Both Ends of the Candle
TTITLE19=Slow Down Old World
TTITLE20=Under The Double Eagle
EXTD=YEAR: 1995
EXTT0=
EXTT1=
EXTT2=
EXTT3=
EXTT4=
EXTT5=
EXTT6=
EXTT7=
EXTT8=
EXTT9=
EXTT10=
EXTT11=
EXTT12=
EXTT13=
EXTT14=
EXTT15=
EXTT16=
EXTT17=
EXTT18=
EXTT19=
EXTT20=
PLAYORDER=
